<?xml version="1.0" encoding="UTF-8"?>
<svg xmlns="http://www.w3.org/2000/svg" width="150" height="150" xmlns:xlink="http://www.w3.org/1999/xlink" viewBox="0 0 150 150">
<defs>
<style>.l{stroke:url(#i);}.l,.m,.n,.o,.p,.q,.r,.s{fill:none;stroke-linecap:round;stroke-miterlimit:10;stroke-width:4px;}.m{stroke:url(#d);}.n{stroke:url(#e);}.o{stroke:url(#f);}.p{stroke:url(#g);}.u{stroke-width:0px;}.q{stroke:url(#h);}.r{stroke:url(#k);}.u{fill:#39b54a;}.s{stroke:url(#j);}</style>
<linearGradient id="d" x1="46" y1="116" x2="46" y2="139" gradientUnits="userSpaceOnUse"><stop offset="0" stop-color="#39b54a" stop-opacity=".8"/><stop offset="1" stop-color="#39b54a" stop-opacity="0"/></linearGradient>
<linearGradient id="e" x1="60" y1="115" x2="60" y2="137" xlink:href="#d"/>
<linearGradient id="f" x1="73" y1="111" x2="73" y2="135" xlink:href="#d"/>
<linearGradient id="g" x1="85" y1="100" x2="85" y2="125" xlink:href="#d"/>
<linearGradient id="h" x1="97" y1="82" x2="97" y2="112" xlink:href="#d"/>
<linearGradient id="i" x1="110" y1="69" x2="110" y2="99" xlink:href="#d"/>
<linearGradient id="j" x1="123" y1="63" x2="123" y2="96" xlink:href="#d"/>
<linearGradient id="k" x1="136" y1="65" x2="136" y2="98" xlink:href="#d"/>
</defs>
<path class="u" d="m33,134c-.38.17-1.04.54-1.42.71-.74-1.63-2.14-8-2.58-9.71-2.61-10.02-1.95-15.28.65-25.24,5.4-20.7,18.66-35.17,36.75-45.72,1.83-1.07,3.71-2.03,6.13-3.35-5.77-.71-22.15,9.65-31.53,19.31-8.03,8.26-14,19-19,27-3.32-6.94-5.81-17.05-4.26-24.39,4.48-21.17,16.62-36.56,37.4-43.85,19.47-6.83,38.72-4.64,57.36,3.6,13.38,5.91,25.02,19.24,30.5,31.64-8-3-15.98-4.9-22.7-3.96-10.92,1.53-18.83,8.76-25.75,16.9-4.42,5.2-8.71,10.53-12.92,15.9-11.87,15.18-27.14,20.28-45.64,15.14-4.5-1.25-5.64.57-6.04,4.3-.95,8.71,3.05,21.71,3.05,21.71Z"/>
<line class="m" x1="46" y1="118" x2="46" y2="137"/>
<line class="n" x1="60" y1="117" x2="60" y2="135"/>
<line class="o" x1="73" y1="113" x2="73" y2="133"/>
<line class="p" x1="85" y1="102" x2="85" y2="123"/>
<line class="q" x1="97" y1="84" x2="97" y2="110"/>
<line class="l" x1="110" y1="71" x2="110" y2="97"/>
<line class="s" x1="123" y1="65" x2="123" y2="94"/>
<line class="r" x1="136" y1="67" x2="136" y2="96"/>
</svg>
